<?xml version="1.0" standalone="no"?>
<!DOCTYPE svg PUBLIC "-//W3C//DTD SVG 20010904//EN"
 "http://www.w3.org/TR/2001/REC-SVG-20010904/DTD/svg10.dtd">
<svg version="1.0" xmlns="http://www.w3.org/2000/svg"
 width="512.000000pt" height="512.000000pt" viewBox="0 0 512.000000 512.000000"
 preserveAspectRatio="xMidYMid meet">

<g transform="translate(0.000000,512.000000) scale(0.100000,-0.100000)"
fill="#000000" stroke="none">
<path d="M1691 5102 c-19 -9 -44 -30 -55 -45 -21 -28 -21 -40 -26 -785 l-5
-757 -757 -5 c-745 -5 -757 -5 -785 -26 -15 -11 -36 -36 -45 -55 -17 -32 -18
-94 -18 -869 0 -775 1 -837 18 -869 9 -19 30 -44 45 -55 28 -21 40 -21 785
-26 l757 -5 5 -757 c5 -745 5 -757 26 -785 11 -15 36 -36 55 -45 32 -17 94
-18 869 -18 775 0 837 1 869 18 19 9 44 30 55 45 21 28 21 40 26 785 l5 757
757 5 c745 5 757 5 785 26 15 11 36 36 45 55 17 32 18 94 18 869 0 775 -1 837
-18 869 -9 19 -30 44 -45 55 -28 21 -40 21 -785 26 l-757 5 -5 757 c-5 745 -5
757 -26 785 -11 15 -36 36 -55 45 -32 17 -94 18 -869 18 -775 0 -837 -1 -869
-18z"/>
</g>
</svg>
